<mxfile host="app.diagrams.net" modified="2022-08-15T07:26:33.889Z" agent="5.0 (Windows NT 10.0; Win64; x64) AppleWebKit/537.36 (KHTML, like Gecko) Chrome/104.0.0.0 Safari/537.36" etag="G0sbGg1fpPl1NWBhf8Lb" version="20.2.3" type="github">
  <diagram id="UmIwRrKytQrgUbGmzv27" name="第 1 页">
    <mxGraphModel dx="1038" dy="556" grid="1" gridSize="10" guides="1" tooltips="1" connect="1" arrows="1" fold="1" page="1" pageScale="1" pageWidth="827" pageHeight="1169" math="0" shadow="0">
      <root>
        <mxCell id="0" />
        <mxCell id="1" parent="0" />
        <mxCell id="3ZBtBt5a3WacTA4lanq2-1" value="" style="rounded=0;whiteSpace=wrap;html=1;fillColor=#d5e8d4;strokeColor=#82b366;" vertex="1" parent="1">
          <mxGeometry x="60" y="140" width="910" height="440" as="geometry" />
        </mxCell>
        <mxCell id="3ZBtBt5a3WacTA4lanq2-2" value="运行时数据区" style="text;html=1;strokeColor=none;fillColor=none;align=center;verticalAlign=middle;whiteSpace=wrap;rounded=0;fontSize=26;" vertex="1" parent="1">
          <mxGeometry x="415" y="140" width="200" height="30" as="geometry" />
        </mxCell>
        <mxCell id="3ZBtBt5a3WacTA4lanq2-3" value="由所有线程共享的数据区" style="rounded=0;whiteSpace=wrap;html=1;fontSize=18;fillColor=#dae8fc;strokeColor=#6c8ebf;" vertex="1" parent="1">
          <mxGeometry x="60" y="30" width="210" height="30" as="geometry" />
        </mxCell>
        <mxCell id="3ZBtBt5a3WacTA4lanq2-4" value="线程隔离的数据区" style="rounded=0;whiteSpace=wrap;html=1;fontSize=18;fillColor=#fff2cc;strokeColor=#d6b656;" vertex="1" parent="1">
          <mxGeometry x="60" y="80" width="210" height="30" as="geometry" />
        </mxCell>
        <mxCell id="3ZBtBt5a3WacTA4lanq2-5" value="" style="rounded=1;whiteSpace=wrap;html=1;fontSize=18;fillColor=#dae8fc;strokeColor=#6c8ebf;" vertex="1" parent="1">
          <mxGeometry x="70" y="180" width="330" height="110" as="geometry" />
        </mxCell>
        <mxCell id="3ZBtBt5a3WacTA4lanq2-6" value="虚拟机栈(栈帧)&lt;br&gt;VM Stack" style="rounded=1;whiteSpace=wrap;html=1;fontSize=18;fillColor=#fff2cc;strokeColor=#d6b656;" vertex="1" parent="1">
          <mxGeometry x="430" y="180" width="270" height="110" as="geometry" />
        </mxCell>
        <mxCell id="3ZBtBt5a3WacTA4lanq2-7" value="本地方法栈&lt;br&gt;Native MethodStack" style="rounded=1;whiteSpace=wrap;html=1;fontSize=18;fillColor=#fff2cc;strokeColor=#d6b656;" vertex="1" parent="1">
          <mxGeometry x="730" y="180" width="230" height="110" as="geometry" />
        </mxCell>
        <mxCell id="3ZBtBt5a3WacTA4lanq2-8" value="" style="rounded=1;whiteSpace=wrap;html=1;fontSize=18;fillColor=#dae8fc;strokeColor=#6c8ebf;" vertex="1" parent="1">
          <mxGeometry x="70" y="310" width="630" height="260" as="geometry" />
        </mxCell>
        <mxCell id="3ZBtBt5a3WacTA4lanq2-9" value="程序计数器&lt;br&gt;Program Counter Register" style="rounded=1;whiteSpace=wrap;html=1;fontSize=18;fillColor=#fff2cc;strokeColor=#d6b656;" vertex="1" parent="1">
          <mxGeometry x="730" y="310" width="230" height="260" as="geometry" />
        </mxCell>
        <mxCell id="3ZBtBt5a3WacTA4lanq2-10" value="堆&lt;br style=&quot;font-size: 28px;&quot;&gt;Heap" style="text;html=1;strokeColor=none;fillColor=none;align=center;verticalAlign=middle;whiteSpace=wrap;rounded=0;fontSize=28;" vertex="1" parent="1">
          <mxGeometry x="297.5" y="325" width="196" height="30" as="geometry" />
        </mxCell>
        <mxCell id="3ZBtBt5a3WacTA4lanq2-11" value="方法区&lt;br&gt;Method Area" style="text;html=1;strokeColor=none;fillColor=none;align=center;verticalAlign=middle;whiteSpace=wrap;rounded=0;fontSize=18;" vertex="1" parent="1">
          <mxGeometry x="137.5" y="195" width="115" height="30" as="geometry" />
        </mxCell>
        <mxCell id="3ZBtBt5a3WacTA4lanq2-13" value="运行时常量池（Runtime Constant Pool）" style="rounded=1;whiteSpace=wrap;html=1;fontSize=18;fillColor=#cdeb8b;strokeColor=#36393d;" vertex="1" parent="1">
          <mxGeometry x="92.5" y="240" width="205" height="40" as="geometry" />
        </mxCell>
        <mxCell id="3ZBtBt5a3WacTA4lanq2-14" value="老年代(2/3)" style="rounded=1;whiteSpace=wrap;html=1;fontSize=18;strokeColor=#36393d;fillColor=#cdeb8b;" vertex="1" parent="1">
          <mxGeometry x="80" y="400" width="180" height="130" as="geometry" />
        </mxCell>
        <mxCell id="3ZBtBt5a3WacTA4lanq2-15" value="" style="rounded=1;whiteSpace=wrap;html=1;fontSize=18;strokeColor=#36393d;fillColor=#cdeb8b;" vertex="1" parent="1">
          <mxGeometry x="280" y="400" width="390" height="130" as="geometry" />
        </mxCell>
        <mxCell id="3ZBtBt5a3WacTA4lanq2-16" value="新生代(1/3)" style="text;html=1;strokeColor=none;fillColor=none;align=center;verticalAlign=middle;whiteSpace=wrap;rounded=0;fontSize=18;" vertex="1" parent="1">
          <mxGeometry x="406.5" y="400" width="115" height="30" as="geometry" />
        </mxCell>
        <mxCell id="3ZBtBt5a3WacTA4lanq2-18" value="Eden(8/10)" style="rounded=0;whiteSpace=wrap;html=1;fontSize=18;strokeColor=#FF0000;" vertex="1" parent="1">
          <mxGeometry x="290" y="460" width="110" height="60" as="geometry" />
        </mxCell>
        <mxCell id="3ZBtBt5a3WacTA4lanq2-20" value="&lt;span style=&quot;color: rgb(234, 67, 53); font-family: arial, sans-serif; font-size: 16px; text-align: left; background-color: rgb(255, 255, 255);&quot;&gt;From Survivor(1/10)&lt;/span&gt;" style="rounded=0;whiteSpace=wrap;html=1;fontSize=18;strokeColor=#FF0000;" vertex="1" parent="1">
          <mxGeometry x="400" y="460" width="140" height="60" as="geometry" />
        </mxCell>
        <mxCell id="3ZBtBt5a3WacTA4lanq2-21" value="&lt;span style=&quot;color: rgb(234, 67, 53); font-family: arial, sans-serif; font-size: 16px; text-align: left; background-color: rgb(255, 255, 255);&quot;&gt;To Survivor(1/10)&lt;/span&gt;" style="rounded=0;whiteSpace=wrap;html=1;fontSize=18;strokeColor=#FF0000;" vertex="1" parent="1">
          <mxGeometry x="540" y="460" width="120" height="60" as="geometry" />
        </mxCell>
        <mxCell id="3ZBtBt5a3WacTA4lanq2-22" value="执行引擎" style="rounded=0;whiteSpace=wrap;html=1;fontSize=26;strokeColor=#36393d;fillColor=#cce5ff;" vertex="1" parent="1">
          <mxGeometry x="70" y="660" width="390" height="60" as="geometry" />
        </mxCell>
        <mxCell id="3ZBtBt5a3WacTA4lanq2-23" value="本地接口库" style="rounded=0;whiteSpace=wrap;html=1;fontSize=26;strokeColor=#36393d;fillColor=#cce5ff;" vertex="1" parent="1">
          <mxGeometry x="730" y="660" width="230" height="60" as="geometry" />
        </mxCell>
        <mxCell id="3ZBtBt5a3WacTA4lanq2-24" value="本地方法库" style="text;html=1;strokeColor=none;fillColor=none;align=center;verticalAlign=middle;whiteSpace=wrap;rounded=0;fontSize=26;" vertex="1" parent="1">
          <mxGeometry x="1090" y="655" width="160" height="65" as="geometry" />
        </mxCell>
        <mxCell id="3ZBtBt5a3WacTA4lanq2-27" value="" style="html=1;shadow=0;dashed=0;align=center;verticalAlign=middle;shape=mxgraph.arrows2.arrow;dy=0.6;dx=40;direction=south;notch=0;fontSize=26;strokeColor=#36393d;fillColor=#eeeeee;" vertex="1" parent="1">
          <mxGeometry x="220" y="580" width="50" height="80" as="geometry" />
        </mxCell>
        <mxCell id="3ZBtBt5a3WacTA4lanq2-29" value="" style="html=1;shadow=0;dashed=0;align=center;verticalAlign=middle;shape=mxgraph.arrows2.arrow;dy=0.6;dx=40;direction=north;notch=0;fontSize=26;strokeColor=#36393d;fillColor=#eeeeee;" vertex="1" parent="1">
          <mxGeometry x="320" y="580" width="50" height="80" as="geometry" />
        </mxCell>
        <mxCell id="3ZBtBt5a3WacTA4lanq2-30" value="" style="html=1;shadow=0;dashed=0;align=center;verticalAlign=middle;shape=mxgraph.arrows2.arrow;dy=0.6;dx=40;notch=0;fontSize=26;strokeColor=#36393d;fillColor=#eeeeee;" vertex="1" parent="1">
          <mxGeometry x="460" y="670" width="270" height="40" as="geometry" />
        </mxCell>
        <mxCell id="3ZBtBt5a3WacTA4lanq2-31" value="" style="html=1;shadow=0;dashed=0;align=center;verticalAlign=middle;shape=mxgraph.arrows2.arrow;dy=0.6;dx=40;direction=south;notch=0;fontSize=26;strokeColor=#36393d;fillColor=#eeeeee;" vertex="1" parent="1">
          <mxGeometry x="770" y="580" width="50" height="80" as="geometry" />
        </mxCell>
        <mxCell id="3ZBtBt5a3WacTA4lanq2-32" value="" style="html=1;shadow=0;dashed=0;align=center;verticalAlign=middle;shape=mxgraph.arrows2.arrow;dy=0.6;dx=40;direction=north;notch=0;fontSize=26;strokeColor=#36393d;fillColor=#eeeeee;" vertex="1" parent="1">
          <mxGeometry x="870" y="580" width="50" height="80" as="geometry" />
        </mxCell>
        <mxCell id="3ZBtBt5a3WacTA4lanq2-33" value="" style="html=1;shadow=0;dashed=0;align=center;verticalAlign=middle;shape=mxgraph.arrows2.arrow;dy=0.6;dx=40;notch=0;fontSize=26;strokeColor=#36393d;fillColor=#eeeeee;" vertex="1" parent="1">
          <mxGeometry x="960" y="665" width="150" height="45" as="geometry" />
        </mxCell>
      </root>
    </mxGraphModel>
  </diagram>
</mxfile>
